Simulation
nRows=31
nColumns=15
endheader
time  TH_x TH_y TH_z SC_y  SC_z  SC_x  AC_y  AC_z  AC_x  GH_y  GH_z  GH_yy  EL_x  PS_y
0.0  0.000000  0.000000  0.000000  -29.0793810099844  -0.41243906037542133  -2.4512970744780262  55.87152935897892  8.552116144387098  -6.237954587091151  32.58500933775117  16.21483188496411  8.068525756328487  27.11867020225698  0.000000
0.038999999999999986  0.000000  0.000000  0.000000  -28.683841461770793  -0.1745079353158285  -2.5756468968580575  55.546021148513994  8.56738461982323  -6.16344846492342  32.608768946876914  16.419970134751246  7.886803558035661  26.709960260777436  0.000000
0.07799999999999997  0.000000  0.000000  0.000000  -28.331015671303753  -0.015044997166084411  -2.7841593443298938  55.225242667786254  8.548210346423996  -6.100858757331661  32.53632838744746  16.547258634401608  7.818232646901268  26.293384808907067  0.000000
0.11699999999999997  0.000000  0.000000  0.000000  -28.02729229096774  0.06307388479281584  -3.0692369220923372  54.95669084205365  8.55126626085685  -6.019405748314583  32.49615784605254  16.673768961270337  7.701502156004086  25.895846832803876  0.000000
0.15599999999999994  0.000000  0.000000  0.000000  -27.781636083321292  0.06535497398852506  -3.400272412749489  54.78411381055416  8.609575012631462  -5.905878269008303  32.64802915491316  16.88922376731489  7.3140553932433505  25.537121952611052  0.000000
0.19499999999999992  0.000000  0.000000  0.000000  -27.61065751739424  0.014857386107112862  -3.727156734319873  54.73357420917379  8.730179233958047  -5.756126917731041  33.14999513637437  17.276899628108982  6.442241332531428  25.236937222012862  0.000000
0.23399999999999993  0.000000  0.000000  0.000000  -27.519362726836547  -0.05868306556032709  -4.001929368803287  54.80519304571304  8.907119160690112  -5.57903629449699  34.12280577895116  17.90142213795604  4.915522966731577  25.007326533303623  0.000000
0.2729999999999999  0.000000  0.000000  0.000000  -27.50664001966959  -0.12881032893164587  -4.182817663320014  54.98509336775662  9.123691554462347  -5.391815229324151  35.591336694738615  18.80721219695771  2.67598395631968  24.849045677340943  0.000000
0.3119999999999999  0.000000  0.000000  0.000000  -27.55311329020518  -0.17598963207154616  -4.239661366304474  55.24966208057995  9.358516620602588  -5.214260741089434  37.47002324881228  20.013783953657253  -0.21108715783027424  24.75438646251511  0.000000
0.35099999999999987  0.000000  0.000000  0.000000  -27.625877233133913  -0.18863581578160069  -4.152362343384673  55.57713791757519  9.59042050799766  -5.063247825197207  39.57784766618705  21.51440001379048  -3.5632638106547745  24.716234356725607  0.000000
0.38999999999999985  0.000000  0.000000  0.000000  -27.682366224308907  -0.1627859142099292  -3.9083094873973354  55.94748164358202  9.80269499533639  -4.953414878382103  41.70336752824861  23.27608366461319  -7.150343492591944  24.731151113282834  0.000000
0.4289999999999998  0.000000  0.000000  0.000000  -27.682309827760413  -0.1021495312915578  -3.5015203102963475  56.34603841987181  9.988199356338905  -4.897189215761761  43.66510321474805  25.24523217915189  -10.755133146466868  24.7931896140283  0.000000
0.46799999999999986  0.000000  0.000000  0.000000  -27.597688552548416  -0.010957658636345487  -2.9300413400814675  56.75961024138475  10.146496316636238  -4.903073012312967  45.356373655944914  27.356905874494068  -14.226020975935603  24.894392177424233  0.000000
0.5069999999999998  0.000000  0.000000  0.000000  -27.419602486149746  0.10870786751373664  -2.1919295135187182  57.17720702575308  10.27783242857249  -4.976318151854815  46.75210321148685  29.546972517594426  -17.493331105286405  25.018152991616816  0.000000
0.5459999999999998  0.000000  0.000000  0.000000  -27.159013660308368  0.25616098682145777  -1.2851829689617018  57.587374925594084  10.38040151713002  -5.120385022114873  47.88985654718439  31.761746553446276  -20.560007871786723  25.1411794068297  0.000000
0.5849999999999997  0.000000  0.000000  0.000000  -26.844766386980133  0.43316991208237887  -0.2095878071521943  57.97719269749202  10.449449850699978  -5.3364434635806886  48.84415455341045  33.96253913378334  -23.480009170043243  25.242497172581263  0.000000
0.6239999999999998  0.000000  0.000000  0.000000  -26.516622657186435  0.6424268075428676  1.030171406812665  58.3328442059817  10.478621783831663  -5.621529299606118  49.69973531879978  36.126225224159334  -26.329340668428298  25.308332237191323  0.000000
0.6629999999999998  0.000000  0.000000  0.000000  -26.21221435801617  0.8855906826282508  2.423110846264051  58.64449899765895  10.463102293790584  -5.967188295424659  50.524578587388845  38.24173816383677  -29.170158994848453  25.331495524983197  0.000000
0.7019999999999997  0.000000  0.000000  0.000000  -25.95412845452455  1.1622958688863527  3.953732654436239  58.91032546531403  10.402175764649014  -6.358022547512714  51.34976175783878  40.302618601100555  -32.015869286309076  25.30860902516677  0.000000
0.7409999999999998  0.000000  0.000000  0.000000  -25.745247030024895  1.4707065310310503  5.604117792598067  59.137764577240965  10.299592566562605  -6.772038543293067  52.163504851828286  42.30022612958219  -34.8179925401161  25.239435266715958  0.000000
0.7799999999999997  0.000000  0.000000  0.000000  -25.574954053557363  1.8082135112093864  7.353956278134974  59.34049175237901  10.161707118049081  -7.181903981595159  52.92218702946169  44.22005993828479  -37.481315187876454  25.127927779419615  0.000000
0.8189999999999997  0.000000  0.000000  0.000000  -25.429616377357004  2.1714146741867557  9.176492913088358  59.533107713866066  9.99532393533048  -7.556724303794068  53.56928643944161  46.04293555692223  -39.899221524315855  24.984516369442105  0.000000
0.8579999999999997  0.000000  0.000000  0.000000  -25.303267527226595  2.5570618704970483  11.033977520308843  59.72719094452867  9.806234927041116  -7.863447352923952  54.05385240973283  47.74957520048256  -41.98800760369688  24.826900785086565  0.000000
0.8969999999999997  0.000000  0.000000  0.000000  -25.201663425807375  2.963422250438066  12.876563310465771  59.93042400965538  9.599970465857147  -8.068728050675967  54.33928356287194  49.325628816303436  -43.70319499660802  24.678253844859547  0.000000
0.9359999999999997  0.000000  0.000000  0.000000  -25.13911200145764  3.3904248464015074  14.64745665745511  60.14757295259907  9.385240633018578  -8.142682860470616  54.40701161563566  50.764594319176126  -45.03910446253491  24.560356481005822  0.000000
0.9749999999999996  0.000000  0.000000  0.000000  -25.13129125090423  3.838471162367825  16.292143059257015  60.38126460101044  9.176051760159744  -8.063713760673044  54.25796307012956  52.069324365926434  -46.02130221765216  24.48597615941751  0.000000
1.0139999999999996  0.000000  0.000000  0.000000  -25.188699114752552  4.305265882693294  17.769183317763357  60.630004163022626  8.992957971336304  -7.825113811588424  53.91653969947814  53.25023959109755  -46.70059851308258  24.455261266016006  0.000000
1.0529999999999997  0.000000  0.000000  0.000000  -25.313507417467303  4.784383629650389  19.057579582210565  60.885338485066676  8.860773444055338  -7.438725123135379  53.42920703705009  54.321287265189895  -47.1454636121743  24.457395226570494  0.000000
1.0919999999999996  0.000000  0.000000  0.000000  -25.501616443229434  5.268154249768973  20.156877897893448  61.13515294922463  8.800395471530525  -6.929793817661004  52.849341198253555  55.29547480422529  -47.42801158343222  24.47460536329879  0.000000
1.1309999999999996  0.000000  0.000000  0.000000  -25.747760171118134  5.751129709968909  21.082061693486136  61.368237274860356  8.821849169178972  -6.327348376175829  52.22464472928829  56.182510773638256  -47.61207493534056  24.488235777310663  0.000000
1.1699999999999995  0.000000  0.000000  0.000000  -26.047842642476144  6.230747980272084  21.8561258967632  61.57831611146227  8.922325610094243  -5.656452949726994  51.59024076283167  56.98951179152083  -47.74385958195476  24.483189266098563  0.000000
